<svg width="31" height="30" viewBox="0 0 31 30" fill="none" xmlns="http://www.w3.org/2000/svg">
<g clip-path="url(#clip0_31_0)">
<path d="M24.1045 18.5839C23.4897 17.9444 22.7482 17.6025 21.9622 17.6025C21.1826 17.6025 20.4347 17.9381 19.7946 18.5776L17.7917 20.5721C17.6269 20.4835 17.4621 20.4011 17.3036 20.3188C17.0755 20.2049 16.86 20.0972 16.6762 19.9832C14.8001 18.7929 13.0951 17.2416 11.4598 15.2345C10.6675 14.2341 10.1351 13.3919 9.7485 12.5372C10.2682 12.0623 10.7499 11.5684 11.219 11.0935C11.3964 10.9162 11.5739 10.7326 11.7514 10.5553C13.0824 9.22568 13.0824 7.50346 11.7514 6.1738L10.021 4.44525C9.82456 4.24896 9.62173 4.04635 9.43159 3.84373C9.0513 3.45117 8.65199 3.04594 8.24001 2.66604C7.6252 2.05819 6.88997 1.73528 6.11671 1.73528C5.34345 1.73528 4.59554 2.05819 3.96172 2.66604C3.95538 2.67237 3.95538 2.67237 3.94904 2.6787L1.79405 4.85047C0.982759 5.66093 0.52007 6.64868 0.418659 7.79472C0.266542 9.64358 0.811628 11.3658 1.22995 12.4928C2.25674 15.2598 3.79059 17.8241 6.07868 20.5721C8.85481 23.8836 12.195 26.4986 16.0106 28.3411C17.4684 29.0313 19.4143 29.848 21.5883 29.9873C21.7214 29.9937 21.8608 30 21.9876 30C23.4517 30 24.6813 29.4745 25.6447 28.4297C25.6511 28.4171 25.6637 28.4107 25.6701 28.3981C25.9997 27.9992 26.38 27.6383 26.7793 27.252C27.0518 26.9924 27.3307 26.7202 27.6032 26.4353C28.2307 25.7831 28.5603 25.0233 28.5603 24.2445C28.5603 23.4594 28.2244 22.7059 27.5842 22.0727L24.1045 18.5839ZM26.3736 25.2512C26.3673 25.2512 26.3673 25.2576 26.3736 25.2512C26.1264 25.5172 25.8729 25.7578 25.6004 26.0237C25.1884 26.4163 24.7701 26.8278 24.3771 27.29C23.7369 27.9739 22.9827 28.2968 21.9939 28.2968C21.8988 28.2968 21.7974 28.2968 21.7024 28.2904C19.8199 28.1701 18.0706 27.4357 16.7586 26.8088C13.1711 25.0739 10.021 22.6109 7.40336 19.4894C5.24203 16.887 3.79692 14.481 2.83985 11.8977C2.2504 10.3211 2.0349 9.09272 2.12997 7.93401C2.19336 7.19321 2.47858 6.57903 3.00465 6.0535L5.16598 3.89439C5.47655 3.60313 5.80613 3.44484 6.12938 3.44484C6.52869 3.44484 6.85194 3.68544 7.05476 3.88806C7.0611 3.89439 7.06744 3.90072 7.07378 3.90705C7.46041 4.26796 7.82802 4.64153 8.21465 5.04043C8.41114 5.24304 8.61396 5.44565 8.81678 5.6546L10.5471 7.38316C11.219 8.05432 11.219 8.67482 10.5471 9.34599C10.3633 9.5296 10.1858 9.71322 10.002 9.89051C9.46962 10.435 8.96256 10.9416 8.41114 11.4354C8.39846 11.4481 8.38579 11.4544 8.37945 11.4671C7.83436 12.0116 7.93577 12.5435 8.04986 12.9044C8.0562 12.9234 8.06254 12.9424 8.06887 12.9614C8.51889 14.0504 9.15271 15.0762 10.1161 16.2982L10.1225 16.3045C11.8718 18.4573 13.7162 20.1352 15.7508 21.4205C16.0106 21.5852 16.2769 21.7181 16.5304 21.8448C16.7586 21.9587 16.9741 22.0664 17.1579 22.1804C17.1832 22.193 17.2086 22.212 17.2339 22.2247C17.4494 22.3323 17.6522 22.383 17.8614 22.383C18.3875 22.383 18.7171 22.0537 18.8248 21.9461L20.9925 19.7806C21.208 19.5654 21.5502 19.3058 21.9495 19.3058C22.3425 19.3058 22.6658 19.5527 22.8622 19.768C22.8686 19.7743 22.8686 19.7743 22.8749 19.7806L26.3673 23.2694C27.0201 23.9152 27.0201 24.5801 26.3736 25.2512Z" fill="black"/>
<path d="M16.5998 7.13621C18.2604 7.41481 19.7689 8.19994 20.9732 9.40296C22.1774 10.606 22.957 12.1129 23.2423 13.7718C23.312 14.1897 23.6733 14.481 24.0852 14.481C24.1359 14.481 24.1803 14.4747 24.231 14.4683C24.7 14.3923 25.0106 13.9491 24.9346 13.4806C24.5923 11.4734 23.6416 9.64357 22.1901 8.19361C20.7387 6.74365 18.9069 5.79389 16.8977 5.45198C16.4287 5.376 15.9914 5.68625 15.909 6.14847C15.8266 6.61068 16.1308 7.06023 16.5998 7.13621Z" fill="black"/>
<path d="M30.3667 13.2337C29.8026 9.92851 28.2434 6.92095 25.8476 4.52757C23.4517 2.13418 20.4411 0.576584 17.1325 0.0130621C16.6699 -0.0692501 16.2325 0.247335 16.1501 0.70955C16.0741 1.1781 16.3846 1.61498 16.8537 1.6973C19.8073 2.1975 22.501 3.59681 24.6433 5.73059C26.7856 7.87071 28.18 10.5617 28.6808 13.5123C28.7505 13.9302 29.1118 14.2214 29.5237 14.2214C29.5744 14.2214 29.6188 14.2151 29.6695 14.2087C30.1322 14.1391 30.4491 13.6959 30.3667 13.2337Z" fill="black"/>
</g>
<defs>
<clipPath id="clip0_31_0">
<rect width="30.0308" height="30" fill="white" transform="translate(0.371094)"/>
</clipPath>
</defs>
</svg>
